PathFileType	4	(X/Y/Z)	C:\Users\Basilio\Documents\Thesis Gigler\squatting_fais\c3dfiles\077\SLS_back_pre5\markers_experimental.trc
DataRate	CameraRate	NumFrames	NumMarkers	Units	OrigDataRate	OrigDataStartFrame	OrigNumFrames
200.000000	200.000000	4	60	mm	200.000000	986	1578
Frame#	Time	FHD			RBHD			C7			T10			CLAV			LSHO			LUUPA			LMUPA			LDUPA			LLEP			LMEP			LRAD			LUL			LRFIN			RSHO			RUPA1			RMUPA			RDUPA			RLEP			RMEP			RRAD			RUL			RUFIN			LASI			RASI			USACR			LSACR			RSACR			LTHI1			LTHI2			LTHI3			LTHI4			LLFC			LMFC			LTIB1			LTIB2			LTIB3			LTIB4			LLMAL			LHEE			LMT1			LMT2			LMT5			RTHI			RTHI2			RTHI3			RTHI4			RLFC			RMFC			RTIB1			RTIB2			RTIB3			RTIB4			RLMAL			RMMAL			RHEE			RMT1			RMT2			RMT5			LBHD			
		X1	Y1	Z1	X2	Y2	Z2	X3	Y3	Z3	X4	Y4	Z4	X5	Y5	Z5	X6	Y6	Z6	X7	Y7	Z7	X8	Y8	Z8	X9	Y9	Z9	X10	Y10	Z10	X11	Y11	Z11	X12	Y12	Z12	X13	Y13	Z13	X14	Y14	Z14	X15	Y15	Z15	X16	Y16	Z16	X17	Y17	Z17	X18	Y18	Z18	X19	Y19	Z19	X20	Y20	Z20	X21	Y21	Z21	X22	Y22	Z22	X23	Y23	Z23	X24	Y24	Z24	X25	Y25	Z25	X26	Y26	Z26	X27	Y27	Z27	X28	Y28	Z28	X29	Y29	Z29	X30	Y30	Z30	X31	Y31	Z31	X32	Y32	Z32	X33	Y33	Z33	X34	Y34	Z34	X35	Y35	Z35	X36	Y36	Z36	X37	Y37	Z37	X38	Y38	Z38	X39	Y39	Z39	X40	Y40	Z40	X41	Y41	Z41	X42	Y42	Z42	X43	Y43	Z43	X44	Y44	Z44	X45	Y45	Z45	X46	Y46	Z46	X47	Y47	Z47	X48	Y48	Z48	X49	Y49	Z49	X50	Y50	Z50	X51	Y51	Z51	X52	Y52	Z52	X53	Y53	Z53	X54	Y54	Z54	X55	Y55	Z55	X56	Y56	Z56	X57	Y57	Z57	X58	Y58	Z58	X59	Y59	Z59	X60	Y60	Z60	

987	4.93	-0.51029771566391	1472.237426757813	-1101.82373046875	-148.7790222167969	1369.413330078125	-1017.093078613281	-208.2691040039063	1265.473022460938	-1093.31103515625	-370.0539245605469	1014.188659667969	-1008.182739257813	-71.54241180419923	1158.424438476563	-1081.267822265625	-90.1231155395508	1215.095947265625	-1244.557373046875	52.70979690551759	1158.579467773438	-1360.874145507813	85.26242065429689	1185.811279296875	-1334.40771484375	120.1159133911133	1152.802368164063	-1371.994873046875	185.357894897461	1159.553100585938	-1370.922119140625	190.0357513427735	1087.1025390625	-1343.655395507813	484.4152221679689	1182.66796875	-1271.150512695313	485.947235107422	1181.519775390625	-1351.2744140625	580.7344360351564	1206.687377929688	-1284.975219726563	-83.72828674316408	1246.772338867188	-944.8250122070315	54.83013153076173	1221.189208984375	-811.8865966796877	86.08444976806642	1239.9345703125	-845.1907348632815	124.328353881836	1217.701416015625	-802.806091308594	191.896224975586	1217.011840820313	-808.6267700195315	191.9488830566407	1139.564331054688	-823.0481567382815	470.2351379394532	1207.639892578125	-919.8736572265627	487.9521484375001	1228.85302734375	-845.8883056640627	565.4763183593751	1234.856567382813	-930.5171508789065	-326.6148681640626	787.7930908203127	-1161.492065429688	-334.1546020507813	737.7781372070314	-894.5244750976565	-442.183074951172	939.7195434570315	-998.1087646484377	-467.4346618652345	932.405212402344	-1030.955322265625	-469.4979858398439	912.7355957031252	-977.1297607421877	-299.4942321777344	682.1804809570314	-1232.709228515625	-223.5771636962891	648.9520263671876	-1222.353271484375	-190.3450622558594	683.4213256835939	-1208.181396484375	-206.3627166748047	591.6340942382814	-1216.60595703125	-96.0927429199219	493.251434326172	-1165.935424804688	-102.2472839355469	489.1044311523439	-1038.276733398438	-149.7715148925782	294.5346984863282	-1065.548583984375	-194.7417907714844	256.4520263671876	-1134.976318359375	-172.2297973632813	247.0396270751954	-1095.207153320313	-220.4343719482422	190.7048797607422	-1056.235473632813	-324.5056457519532	105.8419036865235	-1100.108764648438	-395.8275146484376	82.66521453857423	-1045.0498046875	-181.0586242675782	57.55134201049806	-1063.709106445313	-192.1226959228516	43.04203414916993	-1111.563598632813	-300.5375976562501	122.8358764648438	-1013.421997070313	-462.8189392089845	439.7693481445314	-883.9193115234377	-425.1352844238282	381.5180358886719	-883.7097167968752	-391.3824157714845	379.4479980468751	-887.0852661132815	-458.6942749023439	312.2770690917969	-917.7586669921877	-476.9256286621095	281.2978210449219	-934.5372314453127	-441.9156188964845	274.6955871582032	-1060.855712890625	-589.6162719726564	258.7950439453126	-1009.765258789063	-660.4421997070314	334.4813842773438	-986.118347167969	-665.1684570312501	299.6582641601563	-1017.955993652344	-692.7055664062501	320.5695800781251	-1067.352905273438	-848.8503417968752	427.0767822265626	-1065.11767578125	-815.5866699218752	423.0538635253907	-1152.423461914063	-815.2834472656252	504.9224853515626	-1090.679443359375	-954.5318603515627	369.5178527832032	-1205.1337890625	-972.4056396484377	359.1454162597657	-1168.380249023438	-999.0947265625002	376.2419738769532	-1125.024169921875	-147.6285095214844	1367.119140625	-1162.171142578125	
988	4.935	-1.222937345504761	1473.644165039063	-1102.062744140625	-149.3961181640625	1370.831298828125	-1017.350463867188	-208.8592681884766	1266.42626953125	-1093.43603515625	-371.1459655761719	1015.542358398438	-1007.888122558594	-71.87864685058595	1159.375366210938	-1081.397705078125	-91.02343750000001	1216.099487304688	-1244.696899414063	51.79899215698244	1160.120727539063	-1360.9375	84.7489700317383	1186.829833984375	-1334.234130859375	119.5602188110352	1154.223999023438	-1371.957885742188	184.8647155761719	1160.52001953125	-1370.7021484375	189.3982086181641	1088.250854492188	-1343.533935546875	483.6413879394532	1184.181274414063	-1270.80224609375	485.1773681640626	1183.462524414063	-1350.91064453125	579.8898315429689	1208.634887695313	-1284.42919921875	-84.42184448242189	1247.915405273438	-944.9291992187502	54.26219177246095	1222.707275390625	-811.8697509765627	85.45064544677736	1241.14013671875	-845.2246704101565	123.5832595825196	1218.9326171875	-802.9176025390627	191.2662658691407	1218.274780273438	-808.5186157226565	191.2010650634766	1140.86865234375	-823.0440673828127	469.6622619628907	1209.199829101563	-919.7880859375002	487.0374450683595	1229.794189453125	-845.8594970703127	564.9362182617189	1236.225341796875	-930.0528564453127	-326.1488647460938	789.4209594726565	-1161.229858398438	-334.6316528320313	738.9645996093751	-894.3997802734377	-442.5591735839845	941.0427246093752	-998.1186523437502	-467.6419677734376	933.5423583984377	-1030.97412109375	-469.9403686523439	913.7039794921877	-977.085144042969	-299.9559631347657	683.0546264648439	-1232.579467773438	-223.9881896972657	649.4895019531251	-1222.166381835938	-190.6641693115235	684.0385131835939	-1207.970336914063	-206.9352264404297	592.4545898437501	-1216.327270507813	-96.33045959472659	493.625946044922	-1165.544311523438	-102.9595336914063	489.3880615234376	-1037.930053710938	-150.1238250732422	294.7299194335938	-1065.37744140625	-194.9341583251954	256.5921020507813	-1134.851684570313	-172.4872436523438	247.2348175048829	-1095.0634765625	-220.5977478027344	190.78466796875	-1056.074584960938	-324.5224609375001	105.8290786743164	-1100.020629882813	-395.7931518554689	82.49742889404298	-1045.012329101563	-180.9846801757813	57.58747863769533	-1063.643188476563	-192.0418701171876	43.04265213012696	-1111.498168945313	-300.6080017089844	122.7823638916016	-1013.346557617188	-460.7077636718751	441.0657653808595	-883.2145996093752	-422.5513916015626	382.9880981445313	-882.577575683594	-388.8428039550782	381.0451660156251	-885.921325683594	-455.4975585937501	313.3312683105469	-916.8059082031252	-473.5350341796876	282.0536193847657	-933.7822265625002	-437.7436523437501	275.5454406738282	-1059.789672851563	-585.5970458984376	258.7294921875001	-1009.319946289063	-657.1390991210939	333.6598205566407	-986.226745605469	-661.5891723632814	298.9197082519532	-1017.675537109375	-686.7061157226564	320.0933532714844	-1068.619873046875	-845.802673339844	424.7227783203126	-1066.255615234375	-812.958435058594	421.336883544922	-1153.975952148438	-811.9869384765627	502.8609008789064	-1091.754272460938	-950.2857666015627	366.8164062500001	-1205.509765625	-968.731140136719	356.7938232421876	-1169.55126953125	-995.6826171875002	373.8243713378907	-1126.799926757813	-148.3296813964844	1367.953125	-1162.39208984375	
989	4.94	-1.947678327560425	1474.707275390625	-1102.3759765625	-150.0980682373047	1371.977661132813	-1017.552795410156	-209.4516906738282	1267.66552734375	-1093.622802734375	-371.7806701660157	1016.547119140625	-1007.963195800781	-72.60620117187501	1160.634155273438	-1081.466796875	-91.56478881835939	1217.354125976563	-1244.70947265625	51.70065689086915	1161.140747070313	-1360.85986328125	83.60442352294923	1188.20068359375	-1334.187255859375	119.4189071655274	1155.415283203125	-1371.81396484375	184.1824493408203	1161.798095703125	-1370.629760742188	188.7673034667969	1089.70849609375	-1343.18408203125	483.1584472656251	1185.90771484375	-1270.309814453125	484.7605285644532	1185.0859375	-1350.578002929688	579.7083129882814	1210.673706054688	-1283.937866210938	-85.0901336669922	1249.023803710938	-945.0510253906252	53.53462219238283	1223.864868164063	-812.0047607421877	84.85110473632814	1242.515258789063	-845.1408691406252	122.9012298583985	1220.377563476563	-802.922790527344	190.5972290039063	1219.656127929688	-808.4024658203127	190.5648803710938	1142.238647460938	-823.059020996094	469.0686950683595	1210.45361328125	-919.4615478515627	486.760711669922	1231.270141601563	-845.3955688476565	564.4617919921876	1237.538208007813	-929.7094726562502	-326.2208557128907	790.606140136719	-1161.09375	-334.8416748046876	740.0657958984376	-894.2596435546877	-443.0328979492189	941.9423828125002	-998.0844726562502	-468.194549560547	934.478454589844	-1030.958862304688	-470.5053710937501	914.5435791015627	-977.0933227539065	-300.6829223632813	683.7871704101564	-1232.445678710938	-223.6615905761719	650.0713500976564	-1221.623046875	-190.8835144042969	684.5810546875001	-1207.837890625	-207.5126342773438	592.9820556640626	-1216.107421875	-96.956901550293	494.0119018554689	-1165.37451171875	-103.7057876586914	489.8155517578126	-1037.767456054688	-150.459213256836	294.9819030761719	-1065.105346679688	-195.2377471923829	256.7693176269532	-1134.578857421875	-172.7310333251953	247.4048004150391	-1094.908569335938	-220.6933898925782	191.0280914306641	-1055.885131835938	-324.4733276367188	105.8057174682617	-1099.94091796875	-395.857147216797	82.58591461181642	-1044.975708007813	-181.0597076416016	57.76579666137697	-1063.661865234375	-191.9773712158203	43.03804397583009	-1111.372314453125	-300.6440124511719	122.7638397216797	-1013.24609375	-458.7178039550782	442.1979064941407	-882.357604980469	-420.095672607422	384.3592529296876	-881.4716796875002	-386.2753906250001	382.9721069335938	-884.8777465820315	-452.4539794921876	314.7961730957032	-915.1583251953127	-470.0308837890626	283.0659484863282	-932.7888793945315	-433.1221923828126	276.2172851562501	-1058.685546875	-581.5125732421876	258.6595153808594	-1008.997375488281	-653.6056518554689	333.2727050781251	-986.2801513671877	-657.6903076171876	298.3762817382813	-1017.839965820313	-686.2756958007814	319.1003112792969	-1067.201782226563	-842.578308105469	422.8805236816407	-1067.42626953125	-808.7003173828127	418.8106079101564	-1154.662963867188	-809.1121215820315	500.6262207031251	-1092.9453125	-946.8406372070315	364.1870727539063	-1207.619506835938	-965.0555419921877	354.1017761230469	-1171.327758789063	-992.0401000976565	371.3974914550782	-1128.455200195313	-149.1065063476563	1369.337524414063	-1162.427490234375	
990	4.945	-2.881737470626831	1476.254028320313	-1102.677856445313	-150.8131408691407	1373.096435546875	-1017.654663085938	-210.0677490234376	1268.559692382813	-1093.632568359375	-371.4971923828126	1017.342468261719	-1008.183227539063	-72.83221435546876	1161.889526367188	-1081.591796875	-91.73082733154298	1218.34521484375	-1244.6865234375	50.95262145996095	1162.255249023438	-1360.692138671875	83.20478820800783	1189.321533203125	-1334.012817382813	118.2341613769532	1156.655151367188	-1371.677368164063	183.506591796875	1163.244873046875	-1370.385620117188	188.3489379882813	1090.93310546875	-1343.111450195313	482.4903259277345	1187.553344726563	-1269.972534179688	484.0476379394532	1186.645385742188	-1350.180053710938	579.1759033203126	1212.65087890625	-1283.415405273438	-85.81827545166017	1250.512451171875	-945.1597900390627	52.91239166259767	1225.109619140625	-811.9694824218752	84.11803436279298	1243.666015625	-845.0832519531252	122.2597579956055	1221.555541992188	-802.8281250000002	189.8685455322266	1220.799438476563	-808.3369750976565	189.9537353515625	1143.477905273438	-823.0338134765627	468.5617065429689	1211.575927734375	-919.216979980469	486.1175231933595	1232.539184570313	-845.069030761719	563.8636474609376	1238.692993164063	-929.3137207031252	-326.9832153320313	791.1550903320315	-1161.0029296875	-335.3025817871094	741.2128906250001	-894.0874023437502	-443.5607910156251	942.811706542969	-998.103454589844	-468.6104736328126	935.3911743164065	-1030.93896484375	-470.8318786621095	915.6867675781252	-977.1121826171877	-301.1206054687501	684.2164306640626	-1232.376342773438	-224.1235961914063	650.5363159179689	-1221.5966796875	-191.130599975586	684.9169921875001	-1207.669921875	-207.8629913330079	593.4671630859376	-1215.869262695313	-97.93930816650393	494.8114624023439	-1165.43359375	-104.3183135986328	490.5023498535157	-1037.69921875	-150.8066558837891	295.3991088867188	-1064.923461914063	-195.5105743408204	257.0470886230469	-1134.423217773438	-173.0061950683594	247.7149200439454	-1094.791625976563	-220.8496551513672	191.2742919921875	-1055.725341796875	-324.5389404296876	105.8507156372071	-1099.8583984375	-395.8257446289064	82.46962738037111	-1044.973876953125	-181.0606384277344	57.67151260375978	-1063.5908203125	-192.0909881591797	43.09969711303712	-1111.411865234375	-300.7146606445313	122.7790832519532	-1013.123229980469	-456.8934326171876	443.473846435547	-881.620056152344	-417.5479736328126	386.1813354492189	-880.626159667969	-383.8623657226563	385.0358886718751	-883.384216308594	-449.364715576172	316.0282287597657	-914.0994262695315	-466.4470825195314	284.1584777832032	-931.690612792969	-429.1091308593751	277.5512084960938	-1057.821166992188	-577.5476074218751	258.8523864746094	-1008.301452636719	-650.2468261718751	332.6587829589844	-986.3590087890627	-653.8757324218751	297.6596374511719	-1017.991027832031	-678.9207763671876	317.9391174316407	-1069.081909179688	-839.4248657226565	420.8126525878907	-1068.616577148438	-804.9853515625002	416.4097900390626	-1155.788940429688	-805.9270019531252	498.8418579101564	-1094.070434570313	-943.1851806640627	361.5667419433594	-1209.60205078125	-961.2903442382815	351.6181335449219	-1172.841796875	-988.5872802734377	368.9523925781251	-1130.277465820313	-149.6226806640625	1370.661499023438	-1162.678100585938	
